<svg xmlns="http://www.w3.org/2000/svg" xmlns:xlink="http://www.w3.org/1999/xlink" width="20" height="20" xmlns:v="https://vecta.io/nano"><defs><path id="A" d="M0 0h20v20H0z"/></defs><g fill="none" fill-rule="evenodd"><use fill="#fff" xlink:href="#A"/><path stroke="#aaa" d="M.5.5h19v19H.5z"/><path d="M6.54 15V4.818h3.73c2.168 0 3.212 1.168 3.212 2.675 0 1.273-.78 1.91-1.715 2.148v.1c1.01.055 2.113.945 2.113 2.52 0 1.56-1.07 2.74-3.435 2.74H6.54zm1.536-1.317h2.217c1.477 0 2.058-.64 2.058-1.496 0-.97-.77-1.765-2.004-1.765H8.076v3.26zm0-4.46h2.058c1.034 0 1.84-.626 1.84-1.61 0-.845-.582-1.487-1.8-1.487H8.076v3.097z" fill="#666"/></g></svg>